{"title":"Batman v Superman Dawn of Justice Ultimate Edition 2016 480p MP4","uid":15134786,"size":741679244,"categoryP":"video","categoryS":"movies","magnet":"?xt=urn:btih:d6bad1246a4ddfbbbc482c0962351eb0e12eb9ba&amp;dn=Batman+v+Superman+Dawn+of+Justice+Ultimate+Edition+2016+480p+MP4&amp;tr=udp%3A%2F%2Ftracker.leechers-paradise.org%3A6969&amp;tr=udp%3A%2F%2Fzer0day.ch%3A1337&amp;tr=udp%3A%2F%2Fopen.demonii.com%3A1337&amp;tr=udp%3A%2F%2Ftracker.coppersurfer.tk%3A6969&amp;tr=udp%3A%2F%2Fexodus.desync.com%3A6969","seeders":1,"leechers":0,"uploader":"k3nd00d","files":2,"time":1467171467,"description":"Batman.v.Superman.Dawn.of.Justice.Ultimate.Edition.(2016).480p.WEBRip-k3n.mp4\r\n\r\n\r\n\r\nFormat : MPEG-4\r\nFormat profile : Base Media\r\nCodec ID : isom (isom/iso2/avc1/mp41)\r\nFile size : 707 MiB\r\nDuration : 3h 2mn\r\nOverall bit rate mode : Variable\r\nOverall bit rate : 542 Kbps\r\nWriting application : Lavf56.25.101\r\n\r\nVideo\r\nID : 1\r\nFormat : AVC\r\nFormat/Info : Advanced Video Codec\r\nFormat profile :   \r\nFormat settings, CABAC : Yes\r\nFormat settings, ReFrames : 4 frames\r\nCodec ID : avc1\r\nCodec ID/Info : Advanced Video Coding\r\nDuration : 3h 2mn\r\nBit rate : 480 Kbps\r\nWidth : 848 pixels\r\nHeight : 352 pixels\r\nDisplay aspect ratio : 2.40:1\r\nFrame rate mode : Variable\r\nFrame rate : 23.976 fps\r\nMinimum frame rate : 12.195 fps\r\nMaximum frame rate : 24.390 fps\r\nOriginal frame rate : 24.390 fps\r\nColor space : YUV\r\nChroma subsampling : 4:2:0\r\nBit depth : 8 bits\r\nScan type : Progressive\r\nBits/(Pixel*Frame) : 0.067\r\nStream size : 616 MiB (87%)\r\nWriting library : x264 core 142 r2389 956c8d8\r\nEncoding settings : cabac=1 / ref=3 / deblock=1:0:0 / analyse=0x3:0x133 / me=hex / subme=7 / psy=1 / psy_rd=1.00:0.00 / mixed_ref=1 / me_range=16 / chroma_me=1 / trellis=1 / 8x8dct=1 / cqm=0 / deadzone=21,11 / fast_pskip=1 / chroma_qp_offset=-2 / threads=3 / lookahead_threads=1 / sliced_threads=0 / nr=0 / decimate=1 / interlaced=0 / bluray_compat=0 / constrained_intra=0 / bframes=3 / b_pyramid=2 / b_adapt=1 / b_bias=0 / direct=1 / weightb=1 / open_gop=0 / weightp=2 / keyint=250 / keyint_min=25 / scenecut=40 / intra_refresh=0 / rc_lookahead=40 / rc=2pass / mbtree=1 / bitrate=480 / ratetol=1.0 / qcomp=0.60 / qpmin=10 / qpmax=51 / qpstep=4 / cplxblur=20.0 / qblur=0.5 / ip_ratio=1.40 / aq=1:1.00\r\n\r\nAudio\r\nID : 2\r\nFormat : AAC\r\nFormat/Info : Advanced Audio Codec\r\nFormat profile : HE-AAC / LC\r\nCodec ID : 40\r\nDuration : 3h 2mn\r\nBit rate mode : Variable\r\nBit rate : 64.0 Kbps\r\nMaximum bit rate : 128 Kbps\r\nChannel(s) : 2 channels\r\nChannel positions : Front: L R\r\nSampling rate : 48.0 KHz / 24.0 KHz\r\nFrame rate : 23.438 fps (1024 spf)\r\nCompression mode : Lossy\r\nStream size : 83.5 MiB (12%)\r\nLanguage : unk\r\nDefault : Yes\r\nAlternate group : 1","torrent":{"xt":"urn:btih:d6bad1246a4ddfbbbc482c0962351eb0e12eb9ba","amp;dn":"Batman+v+Superman+Dawn+of+Justice+Ultimate+Edition+2016+480p+MP4","amp;tr":["udp%3A%2F%2Ftracker.leechers-paradise.org%3A6969","udp%3A%2F%2Fzer0day.ch%3A1337","udp%3A%2F%2Fopen.demonii.com%3A1337","udp%3A%2F%2Ftracker.coppersurfer.tk%3A6969","udp%3A%2F%2Fexodus.desync.com%3A6969"],"infoHash":"d6bad1246a4ddfbbbc482c0962351eb0e12eb9ba","infoHashBuffer":{"type":"Buffer","data":[214,186,209,36,106,77,223,187,188,72,44,9,98,53,30,176,225,46,185,186]},"announce":[],"urlList":[]}}